<?xml version="1.0" encoding="iso-8859-1"?>
<!-- Generator: Adobe Illustrator 19.0.0, SVG Export Plug-In . SVG Version: 6.00 Build 0)  -->
<svg version="1.1" id="Capa_1" xmlns="http://www.w3.org/2000/svg" xmlns:xlink="http://www.w3.org/1999/xlink" x="0px" y="0px"
	 viewBox="0 0 512 512" style="enable-background:new 0 0 512 512;" xml:space="preserve">
<g>
	<path style="fill:#71C285;" d="M247.322,260.339H212.61c-4.793,0-8.678-3.885-8.678-8.678c0-4.793,3.885-8.678,8.678-8.678h34.712
		c4.793,0,8.678,3.885,8.678,8.678C256,256.454,252.115,260.339,247.322,260.339z"/>
	<path style="fill:#3F5C6C;" d="M21.695,69.424h173.559c9.585,0,17.356,7.771,17.356,17.356v329.763
		c0,9.585-7.771,17.356-17.356,17.356H21.695c-9.585,0-17.356-7.771-17.356-17.356V86.78C4.339,77.194,12.109,69.424,21.695,69.424z
		"/>
	<path style="fill:#41767F;" d="M212.61,208.271v208.271c-0.028,9.574-7.782,17.328-17.356,17.356H21.695
		c-9.574-0.028-17.328-7.782-17.356-17.356V208.271l79.23,36.014h49.812L212.61,208.271z"/>
	<g>
		<path style="fill:#71C285;" d="M334.102,451.254H299.39c-4.793,0-8.678-3.885-8.678-8.678c0-4.793,3.885-8.678,8.678-8.678h34.712
			c4.793,0,8.678,3.885,8.678,8.678C342.78,447.369,338.894,451.254,334.102,451.254z"/>
		<path style="fill:#71C285;" d="M334.102,60.746H299.39c-4.793,0-8.678-3.885-8.678-8.678s3.885-8.678,8.678-8.678h34.712
			c4.793,0,8.678,3.885,8.678,8.678S338.894,60.746,334.102,60.746z"/>
		<path style="fill:#71C285;" d="M334.102,260.339H299.39c-4.793,0-8.678-3.885-8.678-8.678c0-4.793,3.885-8.678,8.678-8.678h34.712
			c4.793,0,8.678,3.885,8.678,8.678C342.78,256.454,338.894,260.339,334.102,260.339z"/>
	</g>
	<g>
		<rect x="394.847" y="86.78" style="fill:#547580;" width="52.068" height="52.024"/>
		<rect x="394.847" y="269.017" style="fill:#547580;" width="52.068" height="52.068"/>
		<rect x="394.847" y="451.254" style="fill:#547580;" width="52.068" height="52.068"/>
	</g>
	<circle style="fill:#35495E;" cx="108.475" cy="251.661" r="26.034"/>
	<g>
		<path style="fill:#B0D3F0;" d="M47.729,104.136H169.22c4.793,0,8.678,3.885,8.678,8.678v26.034c0,4.793-3.885,8.678-8.678,8.678
			H47.729c-4.793,0-8.678-3.885-8.678-8.678v-26.034C39.051,108.021,42.936,104.136,47.729,104.136z"/>
		<path style="fill:#B0D3F0;" d="M169.22,190.915c-2.308,0.022-4.529-0.885-6.161-2.517c-1.632-1.632-2.539-3.853-2.517-6.161
			c0.012-1.135,0.247-2.256,0.691-3.301c0.441-1.051,1.059-2.018,1.826-2.861c2.076-2.048,5.037-2.927,7.894-2.343
			c0.544,0.093,1.071,0.267,1.564,0.517c0.554,0.191,1.08,0.454,1.564,0.784c0.432,0.347,0.864,0.695,1.301,1.042
			c0.765,0.844,1.381,1.811,1.822,2.86c0.445,1.044,0.681,2.166,0.695,3.301c-0.035,2.297-0.933,4.497-2.517,6.161
			c-0.436,0.347-0.869,0.695-1.301,1.038c-0.484,0.33-1.01,0.593-1.564,0.784c-0.493,0.249-1.02,0.425-1.563,0.521
			C170.381,190.842,169.802,190.9,169.22,190.915z"/>
		<path style="fill:#B0D3F0;" d="M143.186,190.915c-2.308,0.022-4.529-0.885-6.161-2.517c-1.632-1.632-2.539-3.853-2.517-6.161
			c0.012-1.135,0.247-2.256,0.691-3.301c0.441-1.051,1.059-2.018,1.826-2.861c2.076-2.048,5.037-2.927,7.894-2.343
			c0.544,0.093,1.071,0.267,1.564,0.517c0.554,0.191,1.08,0.454,1.564,0.784c0.432,0.347,0.864,0.695,1.301,1.042
			c0.765,0.844,1.381,1.811,1.822,2.86c0.445,1.044,0.681,2.166,0.695,3.301c-0.035,2.297-0.933,4.497-2.517,6.161
			c-0.436,0.347-0.869,0.695-1.301,1.038c-0.484,0.33-1.01,0.593-1.564,0.784c-0.493,0.249-1.02,0.425-1.563,0.521
			C144.347,190.842,143.768,190.9,143.186,190.915z"/>
		<path style="fill:#B0D3F0;" d="M91.119,390.508H73.763c-4.793,0-8.678,3.885-8.678,8.678c0,4.793,3.885,8.678,8.678,8.678h17.356
			c4.793,0,8.678-3.885,8.678-8.678C99.797,394.394,95.911,390.508,91.119,390.508z"/>
		<path style="fill:#B0D3F0;" d="M143.186,390.508h-17.356c-4.793,0-8.678,3.885-8.678,8.678c0,4.793,3.885,8.678,8.678,8.678
			h17.356c4.793,0,8.678-3.885,8.678-8.678C151.864,394.394,147.979,390.508,143.186,390.508z"/>
	</g>
	<path style="fill:#71C285;" d="M273.356,425.22c-2.302,0.001-4.509-0.913-6.137-2.541c-1.628-1.628-2.542-3.835-2.541-6.137V78.102
		c0-4.793,3.885-8.678,8.678-8.678c4.793,0,8.678,3.885,8.678,8.678v338.441c0.001,2.302-0.914,4.509-2.541,6.137
		C277.865,424.307,275.658,425.221,273.356,425.22z"/>
	<g>
		<path style="fill:#90BAE1;" d="M342.78,0h156.203c4.793,0,8.678,3.885,8.678,8.678v86.736c0,4.793-3.885,8.678-8.678,8.678H342.78
			c-4.793,0-8.678-3.885-8.678-8.678V8.678C334.102,3.885,337.987,0,342.78,0z"/>
		<path style="fill:#90BAE1;" d="M342.78,182.324h156.203c4.793,0,8.678,3.885,8.678,8.678v86.736c0,4.793-3.885,8.678-8.678,8.678
			H342.78c-4.793,0-8.678-3.885-8.678-8.678v-86.736C334.102,186.209,337.987,182.324,342.78,182.324z"/>
		<path style="fill:#90BAE1;" d="M342.78,364.561h156.203c4.793,0,8.678,3.885,8.678,8.678v86.736c0,4.793-3.885,8.678-8.678,8.678
			H342.78c-4.793,0-8.678-3.885-8.678-8.678v-86.736C334.102,368.447,337.987,364.561,342.78,364.561z"/>
	</g>
	<g>
		<path style="fill:#B0D3F0;" d="M386.169,78.056c-2.308,0.022-4.529-0.885-6.161-2.517c-1.632-1.632-2.539-3.853-2.517-6.161
			c0.012-1.135,0.247-2.256,0.691-3.301c0.42-1.061,1.04-2.032,1.826-2.86c2.538-2.379,6.216-3.089,9.458-1.826
			c1.073,0.401,2.049,1.023,2.864,1.826c3.356,3.422,3.356,8.9,0,12.322c-0.817,0.801-1.793,1.422-2.864,1.822
			C388.423,77.806,387.303,78.042,386.169,78.056z"/>
		<path style="fill:#B0D3F0;" d="M420.881,78.056c-3.509-0.014-6.667-2.131-8.013-5.372c-1.346-3.241-0.616-6.972,1.851-9.467
			c3.403-3.403,8.92-3.403,12.323,0c3.403,3.403,3.403,8.92,0,12.323C425.378,77.123,423.178,78.021,420.881,78.056z"/>
		<path style="fill:#B0D3F0;" d="M455.593,78.056c-1.135-0.014-2.257-0.25-3.301-0.695c-1.06-0.42-2.031-1.039-2.86-1.822
			c-3.356-3.422-3.356-8.9,0-12.322c3.454-3.276,8.868-3.276,12.322,0c2.107,2.028,3.031,4.992,2.451,7.858
			c-0.58,2.866-2.585,5.237-5.315,6.286C457.847,77.806,456.727,78.042,455.593,78.056z"/>
		<path style="fill:#B0D3F0;" d="M386.169,260.339c-2.308,0.022-4.529-0.885-6.161-2.517c-1.632-1.632-2.539-3.853-2.517-6.161
			c0.012-1.135,0.247-2.256,0.691-3.301c0.42-1.062,1.04-2.033,1.826-2.861c2.538-2.379,6.216-3.09,9.458-1.826
			c1.073,0.4,2.049,1.023,2.865,1.826c3.356,3.422,3.356,8.9,0,12.322c-0.817,0.801-1.793,1.422-2.864,1.822
			C388.423,260.089,387.303,260.325,386.169,260.339z"/>
		<path style="fill:#B0D3F0;" d="M420.881,260.339c-4.092-0.04-7.589-2.96-8.358-6.98c-0.769-4.02,1.403-8.024,5.192-9.571
			c3.789-1.547,8.143-0.209,10.408,3.199c2.265,3.408,1.813,7.941-1.081,10.835C425.379,259.406,423.179,260.305,420.881,260.339z"
			/>
		<path style="fill:#B0D3F0;" d="M455.593,260.339c-1.135-0.013-2.257-0.25-3.301-0.695c-1.06-0.42-2.031-1.039-2.86-1.822
			c-3.356-3.422-3.356-8.9,0-12.322c3.454-3.276,8.868-3.276,12.322,0c2.107,2.028,3.031,4.992,2.451,7.858
			c-0.58,2.866-2.585,5.237-5.315,6.286C457.847,260.089,456.727,260.325,455.593,260.339z"/>
		<path style="fill:#B0D3F0;" d="M386.169,442.576c-2.308,0.022-4.529-0.885-6.161-2.517c-1.632-1.632-2.539-3.853-2.517-6.161
			c0.012-1.135,0.247-2.256,0.691-3.301c0.42-1.062,1.04-2.033,1.826-2.861c2.538-2.379,6.216-3.09,9.458-1.826
			c1.073,0.4,2.049,1.023,2.865,1.826c3.356,3.422,3.356,8.9,0,12.322c-0.817,0.801-1.793,1.422-2.864,1.822
			C388.423,442.326,387.303,442.562,386.169,442.576z"/>
		<path style="fill:#B0D3F0;" d="M420.881,442.576c-4.092-0.04-7.589-2.96-8.358-6.98c-0.769-4.02,1.403-8.024,5.192-9.571
			c3.789-1.547,8.143-0.209,10.408,3.199c2.265,3.408,1.813,7.941-1.081,10.835C425.379,441.644,423.179,442.542,420.881,442.576z"
			/>
		<path style="fill:#B0D3F0;" d="M455.593,442.576c-1.135-0.013-2.257-0.25-3.301-0.695c-1.06-0.42-2.031-1.039-2.86-1.822
			c-3.356-3.422-3.356-8.9,0-12.322c3.454-3.276,8.868-3.276,12.322,0c2.107,2.028,3.031,4.992,2.451,7.858
			c-0.58,2.866-2.585,5.237-5.315,6.286C457.847,442.326,456.727,442.562,455.593,442.576z"/>
	</g>
	<g>
		<path style="fill:#3F5C6C;" d="M464.271,147.479h-86.78c-4.793,0-8.678-3.885-8.678-8.678s3.885-8.678,8.678-8.678h86.78
			c4.793,0,8.678,3.885,8.678,8.678S469.064,147.479,464.271,147.479z"/>
		<path style="fill:#3F5C6C;" d="M464.271,329.763h-86.78c-4.793,0-8.678-3.885-8.678-8.678s3.885-8.678,8.678-8.678h86.78
			c4.793,0,8.678,3.885,8.678,8.678S469.064,329.763,464.271,329.763z"/>
		<path style="fill:#3F5C6C;" d="M464.271,512h-86.78c-4.793,0-8.678-3.885-8.678-8.678c0-4.793,3.885-8.678,8.678-8.678h86.78
			c4.793,0,8.678,3.885,8.678,8.678C472.949,508.115,469.064,512,464.271,512z"/>
	</g>
	<g>
		<circle style="fill:#26B99A;" cx="273.356" cy="52.068" r="26.034"/>
		<circle style="fill:#26B99A;" cx="273.356" cy="251.661" r="26.034"/>
		<circle style="fill:#26B99A;" cx="273.356" cy="442.576" r="26.034"/>
	</g>
</g>
<g>
</g>
<g>
</g>
<g>
</g>
<g>
</g>
<g>
</g>
<g>
</g>
<g>
</g>
<g>
</g>
<g>
</g>
<g>
</g>
<g>
</g>
<g>
</g>
<g>
</g>
<g>
</g>
<g>
</g>
</svg>
