<svg id="Solid_gradient" height="512" viewBox="0 0 512 512" width="512" xmlns="http://www.w3.org/2000/svg" xmlns:xlink="http://www.w3.org/1999/xlink" data-name="Solid gradient"><linearGradient id="linear-gradient" gradientUnits="userSpaceOnUse" x1="157.207" x2="157.207" y1="-28.86" y2="602.439"><stop offset="0" stop-color="#ff91d2"/><stop offset=".262" stop-color="#f68bd9"/><stop offset=".688" stop-color="#de79ed"/><stop offset=".999" stop-color="#c86aff"/></linearGradient><linearGradient id="linear-gradient-2" x1="136" x2="136" xlink:href="#linear-gradient" y1="-28.86" y2="602.439"/><linearGradient id="linear-gradient-3" x1="376" x2="376" xlink:href="#linear-gradient" y1="-28.86" y2="602.439"/><linearGradient id="linear-gradient-4" x1="256" x2="256" xlink:href="#linear-gradient" y1="-28.86" y2="602.439"/><linearGradient id="linear-gradient-5" x1="114.793" x2="114.793" xlink:href="#linear-gradient" y1="-28.86" y2="602.439"/><linearGradient id="linear-gradient-8" x1="234.793" x2="234.793" xlink:href="#linear-gradient" y1="-28.86" y2="602.439"/><linearGradient id="linear-gradient-9" x1="277.207" x2="277.207" xlink:href="#linear-gradient" y1="-28.86" y2="602.439"/><linearGradient id="linear-gradient-12" x1="40" x2="40" xlink:href="#linear-gradient" y1="-28.86" y2="602.439"/><linearGradient id="linear-gradient-13" x1="397.207" x2="397.207" xlink:href="#linear-gradient" y1="-28.86" y2="602.439"/><linearGradient id="linear-gradient-15" x1="264" x2="264" xlink:href="#linear-gradient" y1="-28.86" y2="602.439"/><linearGradient id="linear-gradient-17" x1="472" x2="472" xlink:href="#linear-gradient" y1="-28.86" y2="602.439"/><linearGradient id="linear-gradient-18" x1="354.793" x2="354.793" xlink:href="#linear-gradient" y1="-28.86" y2="602.439"/><g><path d="m168 249.904v-51.808l-21.586 25.904z" fill="url(#linear-gradient)"/><path d="m113.08 264h45.84l-22.92-27.504z" fill="url(#linear-gradient-2)"/><path d="m398.92 184h-45.84l22.92 27.504z" fill="url(#linear-gradient-3)"/><path d="m176 320h160v16h-160z" fill="url(#linear-gradient-4)"/><path d="m104 198.096v51.808l21.586-25.904z" fill="url(#linear-gradient-5)"/><path d="m158.92 184h-45.84l22.92 27.504z" fill="url(#linear-gradient-2)"/><path d="m233.08 264h45.84l-22.92-27.504z" fill="url(#linear-gradient-4)"/><path d="m224 198.096v51.808l21.586-25.904z" fill="url(#linear-gradient-8)"/><path d="m288 249.904v-51.808l-21.586 25.904z" fill="url(#linear-gradient-9)"/><path d="m278.92 184h-45.84l22.92 27.504z" fill="url(#linear-gradient-4)"/><path d="m448 32h-384v32h384zm-352 24h-16v-16h16zm32 0h-16v-16h16zm32 0h-16v-16h16zm272 0h-16v-16h16z" fill="url(#linear-gradient-4)"/><path d="m48 160h-14a2 2 0 0 0 -2 2v190h16z" fill="url(#linear-gradient-12)"/><path d="m408 249.904v-51.808l-21.586 25.904z" fill="url(#linear-gradient-13)"/><path d="m448 80h-384v296h384zm-120 56h48v16h-48zm-120-32h96v16h-96zm96 32v16h-32v-16zm-96 0h48v16h-48zm0 40a8 8 0 0 1 8-8h80a8 8 0 0 1 8 8v96a8 8 0 0 1 -8 8h-80a8 8 0 0 1 -8-8zm-120-72h96v16h-96zm96 32v16h-32v-16zm-96 0h48v16h-48zm0 40a8 8 0 0 1 8-8h80a8 8 0 0 1 8 8v96a8 8 0 0 1 -8 8h-80a8 8 0 0 1 -8-8zm32 176h-32v-16h32zm24-32h-56v-16h56zm208 24a8 8 0 0 1 -8 8h-176a8 8 0 0 1 -8-8v-32a8 8 0 0 1 8-8h176a8 8 0 0 1 8 8zm72 8h-32v-16h32zm0-32h-56v-16h56zm0-48a8 8 0 0 1 -8 8h-80a8 8 0 0 1 -8-8v-96a8 8 0 0 1 8-8h80a8 8 0 0 1 8 8zm0-120h-32v-16h32zm0-32h-96v-16h96z" fill="url(#linear-gradient-4)"/><path d="m333.973 469.106-6.221-1.038a37.88 37.88 0 0 1 -31.752-37.482v-6.586h-64v6.586a37.882 37.882 0 0 1 -31.752 37.483l-6.22 1.036a11.96 11.96 0 0 0 -9.992 10.895h159.928a11.958 11.958 0 0 0 -9.991-10.894z" fill="url(#linear-gradient-15)"/><path d="m464 384a8 8 0 0 1 -8 8h-400a8 8 0 0 1 -8-8v-16h-16v38a2 2 0 0 0 2 2h444a2 2 0 0 0 2-2v-38h-16z" fill="url(#linear-gradient-4)"/><path d="m478 160h-14v192h16v-190a2 2 0 0 0 -2-2z" fill="url(#linear-gradient-17)"/><path d="m344 198.096v51.808l21.586-25.904z" fill="url(#linear-gradient-18)"/><path d="m353.08 264h45.84l-22.92-27.504z" fill="url(#linear-gradient-3)"/></g></svg>